<?xml version="1.0" encoding="utf-8" standalone="no"?>
<!DOCTYPE svg PUBLIC "-//W3C//DTD SVG 1.1//EN"
  "http://www.w3.org/Graphics/SVG/1.1/DTD/svg11.dtd">
<!-- Created with matplotlib (https://matplotlib.org/) -->
<svg height="345.6pt" version="1.1" viewBox="0 0 460.8 345.6" width="460.8pt" xmlns="http://www.w3.org/2000/svg" xmlns:xlink="http://www.w3.org/1999/xlink">
 <defs>
  <style type="text/css">
*{stroke-linecap:butt;stroke-linejoin:round;}
  </style>
 </defs>
 <g id="figure_1">
  <g id="patch_1">
   <path d="M 0 345.6 
L 460.8 345.6 
L 460.8 0 
L 0 0 
z
" style="fill:#ffffff;"/>
  </g>
  <g id="axes_1">
   <g id="patch_2">
    <path d="M 57.6 307.584 
L 414.72 307.584 
L 414.72 41.472 
L 57.6 41.472 
z
" style="fill:#ffffff;"/>
   </g>
   <g id="matplotlib.axis_1">
    <g id="xtick_1">
     <g id="line2d_1">
      <defs>
       <path d="M 0 0 
L 0 3.5 
" id="mf7691e22c5" style="stroke:#000000;stroke-width:0.8;"/>
      </defs>
      <g>
       <use style="stroke:#000000;stroke-width:0.8;" x="73.832727" xlink:href="#mf7691e22c5" y="307.584"/>
      </g>
     </g>
     <g id="text_1">
      <!-- 0 -->
      <defs>
       <path d="M 31.78125 66.40625 
Q 24.171875 66.40625 20.328125 58.90625 
Q 16.5 51.421875 16.5 36.375 
Q 16.5 21.390625 20.328125 13.890625 
Q 24.171875 6.390625 31.78125 6.390625 
Q 39.453125 6.390625 43.28125 13.890625 
Q 47.125 21.390625 47.125 36.375 
Q 47.125 51.421875 43.28125 58.90625 
Q 39.453125 66.40625 31.78125 66.40625 
z
M 31.78125 74.21875 
Q 44.046875 74.21875 50.515625 64.515625 
Q 56.984375 54.828125 56.984375 36.375 
Q 56.984375 17.96875 50.515625 8.265625 
Q 44.046875 -1.421875 31.78125 -1.421875 
Q 19.53125 -1.421875 13.0625 8.265625 
Q 6.59375 17.96875 6.59375 36.375 
Q 6.59375 54.828125 13.0625 64.515625 
Q 19.53125 74.21875 31.78125 74.21875 
z
" id="DejaVuSans-48"/>
      </defs>
      <g transform="translate(70.651477 322.182437)scale(0.1 -0.1)">
       <use xlink:href="#DejaVuSans-48"/>
      </g>
     </g>
    </g>
    <g id="xtick_2">
     <g id="line2d_2">
      <g>
       <use style="stroke:#000000;stroke-width:0.8;" x="124.56" xlink:href="#mf7691e22c5" y="307.584"/>
      </g>
     </g>
     <g id="text_2">
      <!-- 5 -->
      <defs>
       <path d="M 10.796875 72.90625 
L 49.515625 72.90625 
L 49.515625 64.59375 
L 19.828125 64.59375 
L 19.828125 46.734375 
Q 21.96875 47.46875 24.109375 47.828125 
Q 26.265625 48.1875 28.421875 48.1875 
Q 40.625 48.1875 47.75 41.5 
Q 54.890625 34.8125 54.890625 23.390625 
Q 54.890625 11.625 47.5625 5.09375 
Q 40.234375 -1.421875 26.90625 -1.421875 
Q 22.3125 -1.421875 17.546875 -0.640625 
Q 12.796875 0.140625 7.71875 1.703125 
L 7.71875 11.625 
Q 12.109375 9.234375 16.796875 8.0625 
Q 21.484375 6.890625 26.703125 6.890625 
Q 35.15625 6.890625 40.078125 11.328125 
Q 45.015625 15.765625 45.015625 23.390625 
Q 45.015625 31 40.078125 35.4375 
Q 35.15625 39.890625 26.703125 39.890625 
Q 22.75 39.890625 18.8125 39.015625 
Q 14.890625 38.140625 10.796875 36.28125 
z
" id="DejaVuSans-53"/>
      </defs>
      <g transform="translate(121.37875 322.182437)scale(0.1 -0.1)">
       <use xlink:href="#DejaVuSans-53"/>
      </g>
     </g>
    </g>
    <g id="xtick_3">
     <g id="line2d_3">
      <g>
       <use style="stroke:#000000;stroke-width:0.8;" x="175.287273" xlink:href="#mf7691e22c5" y="307.584"/>
      </g>
     </g>
     <g id="text_3">
      <!-- 10 -->
      <defs>
       <path d="M 12.40625 8.296875 
L 28.515625 8.296875 
L 28.515625 63.921875 
L 10.984375 60.40625 
L 10.984375 69.390625 
L 28.421875 72.90625 
L 38.28125 72.90625 
L 38.28125 8.296875 
L 54.390625 8.296875 
L 54.390625 0 
L 12.40625 0 
z
" id="DejaVuSans-49"/>
      </defs>
      <g transform="translate(168.924773 322.182437)scale(0.1 -0.1)">
       <use xlink:href="#DejaVuSans-49"/>
       <use x="63.623047" xlink:href="#DejaVuSans-48"/>
      </g>
     </g>
    </g>
    <g id="xtick_4">
     <g id="line2d_4">
      <g>
       <use style="stroke:#000000;stroke-width:0.8;" x="226.014545" xlink:href="#mf7691e22c5" y="307.584"/>
      </g>
     </g>
     <g id="text_4">
      <!-- 15 -->
      <g transform="translate(219.652045 322.182437)scale(0.1 -0.1)">
       <use xlink:href="#DejaVuSans-49"/>
       <use x="63.623047" xlink:href="#DejaVuSans-53"/>
      </g>
     </g>
    </g>
    <g id="xtick_5">
     <g id="line2d_5">
      <g>
       <use style="stroke:#000000;stroke-width:0.8;" x="276.741818" xlink:href="#mf7691e22c5" y="307.584"/>
      </g>
     </g>
     <g id="text_5">
      <!-- 20 -->
      <defs>
       <path d="M 19.1875 8.296875 
L 53.609375 8.296875 
L 53.609375 0 
L 7.328125 0 
L 7.328125 8.296875 
Q 12.9375 14.109375 22.625 23.890625 
Q 32.328125 33.6875 34.8125 36.53125 
Q 39.546875 41.84375 41.421875 45.53125 
Q 43.3125 49.21875 43.3125 52.78125 
Q 43.3125 58.59375 39.234375 62.25 
Q 35.15625 65.921875 28.609375 65.921875 
Q 23.96875 65.921875 18.8125 64.3125 
Q 13.671875 62.703125 7.8125 59.421875 
L 7.8125 69.390625 
Q 13.765625 71.78125 18.9375 73 
Q 24.125 74.21875 28.421875 74.21875 
Q 39.75 74.21875 46.484375 68.546875 
Q 53.21875 62.890625 53.21875 53.421875 
Q 53.21875 48.921875 51.53125 44.890625 
Q 49.859375 40.875 45.40625 35.40625 
Q 44.1875 33.984375 37.640625 27.21875 
Q 31.109375 20.453125 19.1875 8.296875 
z
" id="DejaVuSans-50"/>
      </defs>
      <g transform="translate(270.379318 322.182437)scale(0.1 -0.1)">
       <use xlink:href="#DejaVuSans-50"/>
       <use x="63.623047" xlink:href="#DejaVuSans-48"/>
      </g>
     </g>
    </g>
    <g id="xtick_6">
     <g id="line2d_6">
      <g>
       <use style="stroke:#000000;stroke-width:0.8;" x="327.469091" xlink:href="#mf7691e22c5" y="307.584"/>
      </g>
     </g>
     <g id="text_6">
      <!-- 25 -->
      <g transform="translate(321.106591 322.182437)scale(0.1 -0.1)">
       <use xlink:href="#DejaVuSans-50"/>
       <use x="63.623047" xlink:href="#DejaVuSans-53"/>
      </g>
     </g>
    </g>
    <g id="xtick_7">
     <g id="line2d_7">
      <g>
       <use style="stroke:#000000;stroke-width:0.8;" x="378.196364" xlink:href="#mf7691e22c5" y="307.584"/>
      </g>
     </g>
     <g id="text_7">
      <!-- 30 -->
      <defs>
       <path d="M 40.578125 39.3125 
Q 47.65625 37.796875 51.625 33 
Q 55.609375 28.21875 55.609375 21.1875 
Q 55.609375 10.40625 48.1875 4.484375 
Q 40.765625 -1.421875 27.09375 -1.421875 
Q 22.515625 -1.421875 17.65625 -0.515625 
Q 12.796875 0.390625 7.625 2.203125 
L 7.625 11.71875 
Q 11.71875 9.328125 16.59375 8.109375 
Q 21.484375 6.890625 26.8125 6.890625 
Q 36.078125 6.890625 40.9375 10.546875 
Q 45.796875 14.203125 45.796875 21.1875 
Q 45.796875 27.640625 41.28125 31.265625 
Q 36.765625 34.90625 28.71875 34.90625 
L 20.21875 34.90625 
L 20.21875 43.015625 
L 29.109375 43.015625 
Q 36.375 43.015625 40.234375 45.921875 
Q 44.09375 48.828125 44.09375 54.296875 
Q 44.09375 59.90625 40.109375 62.90625 
Q 36.140625 65.921875 28.71875 65.921875 
Q 24.65625 65.921875 20.015625 65.03125 
Q 15.375 64.15625 9.8125 62.3125 
L 9.8125 71.09375 
Q 15.4375 72.65625 20.34375 73.4375 
Q 25.25 74.21875 29.59375 74.21875 
Q 40.828125 74.21875 47.359375 69.109375 
Q 53.90625 64.015625 53.90625 55.328125 
Q 53.90625 49.265625 50.4375 45.09375 
Q 46.96875 40.921875 40.578125 39.3125 
z
" id="DejaVuSans-51"/>
      </defs>
      <g transform="translate(371.833864 322.182437)scale(0.1 -0.1)">
       <use xlink:href="#DejaVuSans-51"/>
       <use x="63.623047" xlink:href="#DejaVuSans-48"/>
      </g>
     </g>
    </g>
   </g>
   <g id="matplotlib.axis_2">
    <g id="ytick_1">
     <g id="line2d_8">
      <defs>
       <path d="M 0 0 
L -3.5 0 
" id="m2f74e797a7" style="stroke:#000000;stroke-width:0.8;"/>
      </defs>
      <g>
       <use style="stroke:#000000;stroke-width:0.8;" x="57.6" xlink:href="#m2f74e797a7" y="294.090534"/>
      </g>
     </g>
     <g id="text_8">
      <!-- −3.0 -->
      <defs>
       <path d="M 10.59375 35.5 
L 73.1875 35.5 
L 73.1875 27.203125 
L 10.59375 27.203125 
z
" id="DejaVuSans-8722"/>
       <path d="M 10.6875 12.40625 
L 21 12.40625 
L 21 0 
L 10.6875 0 
z
" id="DejaVuSans-46"/>
      </defs>
      <g transform="translate(26.317187 297.889753)scale(0.1 -0.1)">
       <use xlink:href="#DejaVuSans-8722"/>
       <use x="83.789062" xlink:href="#DejaVuSans-51"/>
       <use x="147.412109" xlink:href="#DejaVuSans-46"/>
       <use x="179.199219" xlink:href="#DejaVuSans-48"/>
      </g>
     </g>
    </g>
    <g id="ytick_2">
     <g id="line2d_9">
      <g>
       <use style="stroke:#000000;stroke-width:0.8;" x="57.6" xlink:href="#m2f74e797a7" y="257.331826"/>
      </g>
     </g>
     <g id="text_9">
      <!-- −2.5 -->
      <g transform="translate(26.317187 261.131045)scale(0.1 -0.1)">
       <use xlink:href="#DejaVuSans-8722"/>
       <use x="83.789062" xlink:href="#DejaVuSans-50"/>
       <use x="147.412109" xlink:href="#DejaVuSans-46"/>
       <use x="179.199219" xlink:href="#DejaVuSans-53"/>
      </g>
     </g>
    </g>
    <g id="ytick_3">
     <g id="line2d_10">
      <g>
       <use style="stroke:#000000;stroke-width:0.8;" x="57.6" xlink:href="#m2f74e797a7" y="220.573118"/>
      </g>
     </g>
     <g id="text_10">
      <!-- −2.0 -->
      <g transform="translate(26.317187 224.372337)scale(0.1 -0.1)">
       <use xlink:href="#DejaVuSans-8722"/>
       <use x="83.789062" xlink:href="#DejaVuSans-50"/>
       <use x="147.412109" xlink:href="#DejaVuSans-46"/>
       <use x="179.199219" xlink:href="#DejaVuSans-48"/>
      </g>
     </g>
    </g>
    <g id="ytick_4">
     <g id="line2d_11">
      <g>
       <use style="stroke:#000000;stroke-width:0.8;" x="57.6" xlink:href="#m2f74e797a7" y="183.81441"/>
      </g>
     </g>
     <g id="text_11">
      <!-- −1.5 -->
      <g transform="translate(26.317187 187.613629)scale(0.1 -0.1)">
       <use xlink:href="#DejaVuSans-8722"/>
       <use x="83.789062" xlink:href="#DejaVuSans-49"/>
       <use x="147.412109" xlink:href="#DejaVuSans-46"/>
       <use x="179.199219" xlink:href="#DejaVuSans-53"/>
      </g>
     </g>
    </g>
    <g id="ytick_5">
     <g id="line2d_12">
      <g>
       <use style="stroke:#000000;stroke-width:0.8;" x="57.6" xlink:href="#m2f74e797a7" y="147.055702"/>
      </g>
     </g>
     <g id="text_12">
      <!-- −1.0 -->
      <g transform="translate(26.317187 150.854921)scale(0.1 -0.1)">
       <use xlink:href="#DejaVuSans-8722"/>
       <use x="83.789062" xlink:href="#DejaVuSans-49"/>
       <use x="147.412109" xlink:href="#DejaVuSans-46"/>
       <use x="179.199219" xlink:href="#DejaVuSans-48"/>
      </g>
     </g>
    </g>
    <g id="ytick_6">
     <g id="line2d_13">
      <g>
       <use style="stroke:#000000;stroke-width:0.8;" x="57.6" xlink:href="#m2f74e797a7" y="110.296994"/>
      </g>
     </g>
     <g id="text_13">
      <!-- −0.5 -->
      <g transform="translate(26.317187 114.096213)scale(0.1 -0.1)">
       <use xlink:href="#DejaVuSans-8722"/>
       <use x="83.789062" xlink:href="#DejaVuSans-48"/>
       <use x="147.412109" xlink:href="#DejaVuSans-46"/>
       <use x="179.199219" xlink:href="#DejaVuSans-53"/>
      </g>
     </g>
    </g>
    <g id="ytick_7">
     <g id="line2d_14">
      <g>
       <use style="stroke:#000000;stroke-width:0.8;" x="57.6" xlink:href="#m2f74e797a7" y="73.538286"/>
      </g>
     </g>
     <g id="text_14">
      <!-- 0.0 -->
      <g transform="translate(34.696875 77.337505)scale(0.1 -0.1)">
       <use xlink:href="#DejaVuSans-48"/>
       <use x="63.623047" xlink:href="#DejaVuSans-46"/>
       <use x="95.410156" xlink:href="#DejaVuSans-48"/>
      </g>
     </g>
    </g>
   </g>
   <g id="line2d_15">
    <path clip-path="url(#p05e7fd1d24)" d="M 73.832727 157.930031 
L 83.978182 156.519384 
L 94.123636 155.952532 
L 104.269091 154.41649 
L 114.414545 154.277529 
L 124.56 152.279995 
L 134.705455 148.082348 
L 144.850909 148.522745 
L 154.996364 145.664713 
L 165.141818 135.879508 
L 175.287273 106.566153 
L 185.432727 102.883728 
L 195.578182 102.387241 
L 205.723636 99.05828 
L 215.869091 97.738 
L 226.014545 96.844692 
L 236.16 95.634755 
L 246.305455 94.573725 
L 256.450909 92.876954 
L 266.596364 92.308414 
L 276.741818 92.021062 
L 286.887273 92.628514 
L 297.032727 92.028855 
L 307.178182 105.567219 
L 317.323636 143.732076 
L 327.469091 172.324352 
L 337.614545 192.370392 
L 347.76 194.26941 
L 357.905455 197.599679 
L 368.050909 200.046235 
L 378.196364 200.485266 
L 388.341818 205.090016 
L 398.487273 204.255976 
" style="fill:none;stroke:#1f77b4;stroke-linecap:square;stroke-width:1.5;"/>
   </g>
   <g id="line2d_16">
    <path clip-path="url(#p05e7fd1d24)" d="M 73.832727 156.397793 
L 83.978182 160.22731 
L 94.123636 158.316513 
L 104.269091 153.917067 
L 114.414545 152.307645 
L 124.56 151.346046 
L 134.705455 149.215834 
L 144.850909 146.983005 
L 154.996364 145.864987 
L 165.141818 138.979732 
L 175.287273 114.170393 
L 185.432727 118.096339 
L 195.578182 117.899532 
L 205.723636 114.560336 
L 215.869091 115.309471 
L 226.014545 114.051987 
L 236.16 113.704864 
L 246.305455 111.761136 
L 256.450909 110.816557 
L 266.596364 109.742494 
L 276.741818 109.052815 
L 286.887273 108.567223 
L 297.032727 111.971397 
L 307.178182 112.166811 
L 317.323636 141.977891 
L 327.469091 166.94322 
L 337.614545 182.830893 
L 347.76 192.663467 
L 357.905455 194.48411 
L 368.050909 198.218695 
L 378.196364 200.301906 
L 388.341818 201.686436 
L 398.487273 204.334852 
" style="fill:none;stroke:#ff7f0e;stroke-linecap:square;stroke-width:1.5;"/>
   </g>
   <g id="line2d_17">
    <path clip-path="url(#p05e7fd1d24)" d="M 73.832727 156.03536 
L 83.978182 155.926476 
L 94.123636 155.794412 
L 104.269091 156.22836 
L 114.414545 155.832588 
L 124.56 152.424968 
L 134.705455 149.551914 
L 144.850909 146.93596 
L 154.996364 145.699453 
L 165.141818 128.437986 
L 175.287273 86.625335 
L 185.432727 70.416231 
L 195.578182 64.83006 
L 205.723636 61.107292 
L 215.869091 56.606552 
L 226.014545 55.040858 
L 236.16 53.568 
L 246.305455 56.076657 
L 256.450909 58.217618 
L 266.596364 60.515462 
L 276.741818 59.741477 
L 286.887273 65.120272 
L 297.032727 83.907183 
L 307.178182 132.532613 
L 317.323636 169.71271 
L 327.469091 187.05683 
L 337.614545 194.434155 
L 347.76 199.277487 
L 357.905455 199.955554 
L 368.050909 200.511286 
L 378.196364 204.186268 
L 388.341818 208.394388 
L 398.487273 204.855554 
" style="fill:none;stroke:#2ca02c;stroke-linecap:square;stroke-width:1.5;"/>
   </g>
   <g id="line2d_18">
    <path clip-path="url(#p05e7fd1d24)" d="M 73.832727 159.222645 
L 83.978182 156.481191 
L 94.123636 155.900658 
L 104.269091 152.786972 
L 114.414545 153.825896 
L 124.56 152.584919 
L 134.705455 154.822594 
L 144.850909 149.566463 
L 154.996364 146.389343 
L 165.141818 129.315443 
L 175.287273 89.238224 
L 185.432727 73.501377 
L 195.578182 68.91445 
L 205.723636 66.121085 
L 215.869091 60.397902 
L 226.014545 58.60853 
L 236.16 58.053289 
L 246.305455 57.53012 
L 256.450909 58.278168 
L 266.596364 59.810016 
L 276.741818 60.030513 
L 286.887273 63.179868 
L 297.032727 82.151948 
L 307.178182 128.781288 
L 317.323636 165.671447 
L 327.469091 184.715398 
L 337.614545 192.924738 
L 347.76 198.361986 
L 357.905455 204.040506 
L 368.050909 200.926215 
L 378.196364 203.602483 
L 388.341818 204.044537 
L 398.487273 204.965156 
" style="fill:none;stroke:#d62728;stroke-linecap:square;stroke-width:1.5;"/>
   </g>
   <g id="line2d_19">
    <path clip-path="url(#p05e7fd1d24)" d="M 73.832727 158.965353 
L 83.978182 157.559877 
L 94.123636 155.891631 
L 104.269091 153.638005 
L 114.414545 152.511127 
L 124.56 151.170083 
L 134.705455 147.708074 
L 144.850909 147.824494 
L 154.996364 146.471085 
L 165.141818 153.044913 
L 175.287273 184.075979 
L 185.432727 214.52625 
L 195.578182 238.341607 
L 205.723636 252.468635 
L 215.869091 259.063882 
L 226.014545 260.559417 
L 236.16 258.846186 
L 246.305455 258.658286 
L 256.450909 257.743224 
L 266.596364 255.157628 
L 276.741818 252.627894 
L 286.887273 250.35922 
L 297.032727 247.297444 
L 307.178182 245.292127 
L 317.323636 240.665388 
L 327.469091 237.424441 
L 337.614545 234.944924 
L 347.76 233.147226 
L 357.905455 218.991828 
L 368.050909 205.153704 
L 378.196364 197.447011 
L 388.341818 201.941161 
L 398.487273 198.174648 
" style="fill:none;stroke:#9467bd;stroke-linecap:square;stroke-width:1.5;"/>
   </g>
   <g id="line2d_20">
    <path clip-path="url(#p05e7fd1d24)" d="M 73.832727 157.066711 
L 83.978182 156.143656 
L 94.123636 155.353576 
L 104.269091 153.013074 
L 114.414545 152.757613 
L 124.56 151.186796 
L 134.705455 148.869474 
L 144.850909 149.120412 
L 154.996364 144.892959 
L 165.141818 139.957237 
L 175.287273 129.304803 
L 185.432727 133.869213 
L 195.578182 135.57726 
L 205.723636 133.323797 
L 215.869091 135.040516 
L 226.014545 134.741306 
L 236.16 133.836339 
L 246.305455 132.778714 
L 256.450909 131.284503 
L 266.596364 130.664461 
L 276.741818 129.268455 
L 286.887273 128.473629 
L 297.032727 128.302184 
L 307.178182 129.211848 
L 317.323636 141.977523 
L 327.469091 163.259552 
L 337.614545 179.135201 
L 347.76 189.435245 
L 357.905455 194.306508 
L 368.050909 201.531893 
L 378.196364 197.260672 
L 388.341818 201.733989 
L 398.487273 206.086312 
" style="fill:none;stroke:#8c564b;stroke-linecap:square;stroke-width:1.5;"/>
   </g>
   <g id="line2d_21">
    <path clip-path="url(#p05e7fd1d24)" d="M 73.832727 157.225278 
L 83.978182 156.72447 
L 94.123636 155.408754 
L 104.269091 157.237416 
L 114.414545 153.416654 
L 124.56 151.623399 
L 134.705455 150.791384 
L 144.850909 148.611252 
L 154.996364 145.134862 
L 165.141818 144.317079 
L 175.287273 142.722722 
L 185.432727 148.069394 
L 195.578182 156.708274 
L 205.723636 156.323256 
L 215.869091 159.010575 
L 226.014545 159.381991 
L 236.16 158.994064 
L 246.305455 158.652243 
L 256.450909 156.80445 
L 266.596364 155.604874 
L 276.741818 154.199705 
L 286.887273 152.529014 
L 297.032727 151.391566 
L 307.178182 149.000179 
L 317.323636 154.974158 
L 327.469091 170.246154 
L 337.614545 177.624961 
L 347.76 186.310719 
L 357.905455 192.907841 
L 368.050909 198.26262 
L 378.196364 198.525083 
L 388.341818 200.397679 
L 398.487273 203.188956 
" style="fill:none;stroke:#e377c2;stroke-linecap:square;stroke-width:1.5;"/>
   </g>
   <g id="line2d_22">
    <path clip-path="url(#p05e7fd1d24)" d="M 73.832727 159.273573 
L 83.978182 156.340451 
L 94.123636 155.741443 
L 104.269091 155.790214 
L 114.414545 154.458838 
L 124.56 150.235109 
L 134.705455 151.263559 
L 144.850909 149.942165 
L 154.996364 145.008634 
L 165.141818 145.189435 
L 175.287273 156.344938 
L 185.432727 163.44654 
L 195.578182 178.391842 
L 205.723636 180.952759 
L 215.869091 183.69934 
L 226.014545 183.847021 
L 236.16 183.278678 
L 246.305455 182.698285 
L 256.450909 182.260753 
L 266.596364 180.882682 
L 276.741818 179.527634 
L 286.887273 178.760454 
L 297.032727 175.903062 
L 307.178182 174.37362 
L 317.323636 172.673867 
L 327.469091 185.047403 
L 337.614545 186.989742 
L 347.76 191.37804 
L 357.905455 191.608208 
L 368.050909 196.056863 
L 378.196364 199.705264 
L 388.341818 199.786165 
L 398.487273 201.084072 
" style="fill:none;stroke:#7f7f7f;stroke-linecap:square;stroke-width:1.5;"/>
   </g>
   <g id="line2d_23">
    <path clip-path="url(#p05e7fd1d24)" d="M 73.832727 155.61242 
L 83.978182 154.919936 
L 94.123636 157.823909 
L 104.269091 155.811844 
L 114.414545 153.679511 
L 124.56 152.369343 
L 134.705455 155.632042 
L 144.850909 148.336327 
L 154.996364 144.571541 
L 165.141818 154.532166 
L 175.287273 196.315207 
L 185.432727 239.53638 
L 195.578182 268.684694 
L 205.723636 287.308071 
L 215.869091 291.592 
L 226.014545 295.488 
L 236.16 293.258712 
L 246.305455 294.209934 
L 256.450909 294.601455 
L 266.596364 288.773072 
L 276.741818 289.856736 
L 286.887273 286.905665 
L 297.032727 284.147753 
L 307.178182 280.288578 
L 317.323636 277.594958 
L 327.469091 273.709159 
L 337.614545 267.332871 
L 347.76 260.757412 
L 357.905455 251.712691 
L 368.050909 233.037746 
L 378.196364 211.377604 
L 388.341818 199.759548 
L 398.487273 195.213253 
" style="fill:none;stroke:#bcbd22;stroke-linecap:square;stroke-width:1.5;"/>
   </g>
   <g id="line2d_24">
    <path clip-path="url(#p05e7fd1d24)" d="M 73.832727 157.599481 
L 83.978182 160.035397 
L 94.123636 153.803372 
L 104.269091 153.021206 
L 114.414545 153.282741 
L 124.56 151.708278 
L 134.705455 150.143298 
L 144.850909 145.983783 
L 154.996364 149.399474 
L 165.141818 149.122095 
L 175.287273 171.078064 
L 185.432727 192.113687 
L 195.578182 202.019651 
L 205.723636 205.890455 
L 215.869091 212.511442 
L 226.014545 214.723702 
L 236.16 213.618435 
L 246.305455 211.799239 
L 256.450909 209.748902 
L 266.596364 208.13572 
L 276.741818 206.65199 
L 286.887273 204.531086 
L 297.032727 204.704823 
L 307.178182 201.829429 
L 317.323636 201.590576 
L 327.469091 211.165333 
L 337.614545 214.267327 
L 347.76 204.633721 
L 357.905455 199.898133 
L 368.050909 199.007452 
L 378.196364 198.346737 
L 388.341818 197.4378 
L 398.487273 203.134751 
" style="fill:none;stroke:#17becf;stroke-linecap:square;stroke-width:1.5;"/>
   </g>
   <g id="line2d_25">
    <path clip-path="url(#p05e7fd1d24)" d="M 73.832727 155.264631 
L 83.978182 156.828586 
L 94.123636 157.511596 
L 104.269091 153.765521 
L 114.414545 153.288718 
L 124.56 151.830439 
L 134.705455 150.896472 
L 144.850909 146.480541 
L 154.996364 146.47339 
L 165.141818 134.187862 
L 175.287273 99.966138 
L 185.432727 87.825505 
L 195.578182 86.89121 
L 205.723636 84.487341 
L 215.869091 81.96957 
L 226.014545 80.359232 
L 236.16 79.23037 
L 246.305455 77.52153 
L 256.450909 77.624154 
L 266.596364 77.003657 
L 276.741818 75.545932 
L 286.887273 74.905725 
L 297.032727 83.059096 
L 307.178182 113.171038 
L 317.323636 156.388162 
L 327.469091 179.071724 
L 337.614545 193.842272 
L 347.76 195.940758 
L 357.905455 198.013645 
L 368.050909 202.791528 
L 378.196364 201.628235 
L 388.341818 205.049938 
L 398.487273 204.912528 
" style="fill:none;stroke:#1f77b4;stroke-linecap:square;stroke-width:1.5;"/>
   </g>
   <g id="patch_3">
    <path d="M 57.6 307.584 
L 57.6 41.472 
" style="fill:none;stroke:#000000;stroke-linecap:square;stroke-linejoin:miter;stroke-width:0.8;"/>
   </g>
   <g id="patch_4">
    <path d="M 414.72 307.584 
L 414.72 41.472 
" style="fill:none;stroke:#000000;stroke-linecap:square;stroke-linejoin:miter;stroke-width:0.8;"/>
   </g>
   <g id="patch_5">
    <path d="M 57.6 307.584 
L 414.72 307.584 
" style="fill:none;stroke:#000000;stroke-linecap:square;stroke-linejoin:miter;stroke-width:0.8;"/>
   </g>
   <g id="patch_6">
    <path d="M 57.6 41.472 
L 414.72 41.472 
" style="fill:none;stroke:#000000;stroke-linecap:square;stroke-linejoin:miter;stroke-width:0.8;"/>
   </g>
  </g>
 </g>
 <defs>
  <clipPath id="p05e7fd1d24">
   <rect height="266.112" width="357.12" x="57.6" y="41.472"/>
  </clipPath>
 </defs>
</svg>
